<?xml version="1.0" standalone="no"?>
<!DOCTYPE svg PUBLIC "-//W3C//DTD SVG 20010904//EN"
 "http://www.w3.org/TR/2001/REC-SVG-20010904/DTD/svg10.dtd">
<svg version="1.0" xmlns="http://www.w3.org/2000/svg"
 width="291.000000pt" height="291.000000pt" viewBox="0 0 291.000000 291.000000"
 preserveAspectRatio="xMidYMid meet">
<metadata>
Created by potrace 1.11, written by Peter Selinger 2001-2013
</metadata>
<g transform="translate(0.000000,291.000000) scale(0.100000,-0.100000)"
fill="#000000" stroke="none">
<path d="M2205 2864 c-9 -14 -14 -28 -11 -32 3 -3 6 -1 6 4 0 6 9 20 20 32 12
12 17 22 12 22 -6 0 -17 -12 -27 -26z"/>
<path d="M1636 2831 c-3 -5 7 -22 22 -38 39 -40 46 -63 26 -78 -18 -13 -22
-59 -10 -116 11 -50 -12 -57 -56 -18 -18 16 -28 29 -23 28 24 -4 22 3 -13 42
-32 34 -49 44 -83 48 -3 1 -23 15 -44 31 -39 31 -91 40 -111 20 -7 -7 -19 -4
-36 10 l-26 20 -7 -29 c-7 -32 -23 -42 -72 -46 -49 -4 -140 -50 -148 -74 -3
-12 -9 -21 -13 -21 -18 0 -83 -71 -76 -83 6 -9 5 -9 -7 0 -16 13 -45 11 -77
-6 -13 -7 -22 -7 -30 1 -7 7 -12 8 -12 4 0 -5 -6 -4 -13 2 -7 6 -39 13 -70 16
-44 3 -62 10 -77 28 -11 13 -19 26 -20 30 0 4 -9 12 -20 18 -15 8 -21 6 -30
-10 -9 -17 -6 -23 17 -37 32 -20 40 -58 19 -82 -32 -36 -24 -91 20 -134 39
-38 39 -54 -1 -54 -30 0 -65 -33 -65 -61 0 -25 -18 -39 -55 -46 -17 -2 -32 -5
-34 -5 -3 -1 6 -12 18 -25 12 -13 19 -25 14 -27 -17 -8 -51 -67 -49 -85 2 -11
-3 -24 -11 -29 -10 -8 -15 -37 -17 -100 -3 -96 -17 -140 -47 -148 -10 -3 -22
-13 -25 -24 -3 -10 -11 -29 -17 -43 -6 -14 -10 -28 -9 -32 1 -4 -7 -10 -18
-13 -15 -5 -20 -14 -18 -35 1 -15 -4 -35 -10 -43 -11 -12 -10 -18 6 -29 21
-15 42 -45 24 -34 -8 5 -12 0 -12 -13 0 -11 -13 -29 -28 -40 -27 -19 -39 -51
-19 -51 6 0 6 -5 0 -12 -13 -17 -9 -111 5 -116 15 -5 1 -44 -22 -64 l-21 -17
23 -16 c12 -9 22 -27 22 -40 0 -37 19 -70 51 -89 15 -9 45 -32 65 -51 20 -19
54 -40 75 -45 22 -6 39 -15 39 -20 0 -5 14 -8 30 -6 33 4 43 -3 32 -21 -7 -11
-43 -20 -84 -22 -10 -1 -30 -14 -45 -31 -26 -29 -75 -41 -87 -21 -7 10 -56 2
-56 -10 0 -12 20 -22 54 -25 29 -4 76 -45 76 -68 0 -4 15 -29 33 -55 18 -25
33 -53 32 -61 -1 -8 2 -24 6 -35 3 -11 2 -33 -2 -50 -5 -16 -11 -47 -14 -68
-4 -30 -2 -37 13 -37 9 0 24 4 32 10 9 6 17 5 21 -1 4 -7 11 -6 20 3 14 12 26
17 59 23 8 1 24 -4 36 -11 11 -8 42 -16 68 -19 27 -2 54 -9 61 -15 8 -7 21 -6
41 4 69 33 88 28 96 -24 2 -21 10 -26 43 -30 71 -10 74 -18 49 -140 -2 -14 -7
-45 -10 -69 -5 -38 -4 -42 9 -30 8 8 13 17 10 22 -2 4 1 7 7 7 7 0 8 6 0 19
-12 23 -13 34 -2 27 4 -2 9 5 9 17 1 12 7 23 13 25 5 2 10 10 10 17 0 23 36
37 50 20 7 -8 19 -15 26 -15 8 0 19 -11 24 -25 56 -148 133 -240 209 -251 30
-5 46 -3 49 5 2 6 7 9 11 6 5 -2 14 7 21 20 15 27 60 35 60 11 0 -29 30 -46
83 -46 47 0 55 3 88 39 19 22 47 43 61 46 13 3 37 18 52 32 25 23 28 31 22 68
-4 36 -2 44 13 48 21 5 65 -39 47 -48 -6 -3 1 -4 16 -2 20 3 25 0 21 -12 -4
-14 -3 -14 5 -1 8 10 7 19 -1 29 -8 10 -9 13 -1 8 7 -4 25 6 40 22 61 61 99
105 97 110 -6 13 10 44 36 69 42 42 71 83 65 93 -6 10 -7 10 61 13 28 2 76 8
108 15 32 7 61 10 64 7 4 -3 12 3 20 14 8 11 21 20 29 20 8 0 13 4 10 8 -3 5
8 18 24 30 l29 22 -17 41 c-15 39 -15 43 1 71 9 16 17 40 17 54 0 25 42 60 60
49 6 -4 10 5 10 21 0 15 3 25 6 21 10 -10 56 18 84 49 26 31 33 75 12 82 -6 2
-12 8 -12 13 0 5 -9 18 -20 29 -11 11 -17 26 -14 35 8 20 -19 61 -45 68 -20 5
-35 -7 -36 -28 -1 -5 -6 -9 -13 -7 -7 1 -11 -3 -10 -9 5 -19 -18 -21 -35 -4
-20 20 -5 71 24 78 10 3 17 1 13 -4 -3 -5 1 -9 8 -9 9 0 9 -3 -2 -10 -8 -5
-10 -10 -5 -10 14 0 35 21 35 34 0 6 -5 4 -10 -4 -8 -12 -10 -9 -10 11 0 14
-11 43 -25 63 -14 20 -27 54 -29 75 -2 21 -11 61 -20 87 -8 27 -17 60 -19 74
-3 18 -13 28 -38 36 -37 12 -50 44 -27 63 23 20 89 61 97 61 8 0 10 25 14 145
l2 60 50 33 c27 18 43 31 35 28 -8 -2 -41 -12 -73 -22 -33 -9 -61 -23 -64 -31
-3 -7 -14 -13 -24 -13 -17 0 -18 6 -13 48 7 62 -9 77 -69 68 -114 -18 -107
-18 -107 6 0 54 24 84 70 91 24 4 65 35 89 67 18 25 23 46 24 109 2 69 5 81
31 111 15 19 37 35 48 37 25 4 51 30 43 43 -4 6 -24 -2 -50 -20 -24 -16 -46
-30 -50 -30 -3 0 -23 -11 -43 -25 -20 -14 -42 -25 -49 -25 -7 0 -24 19 -39 41
-25 39 -27 41 -64 35 -38 -6 -39 -5 -46 29 -3 19 -4 41 -1 50 6 13 -46 112
-76 146 -33 38 -46 91 -26 115 9 11 8 14 -6 14 -13 0 -16 6 -11 24 9 35 -39
43 -68 12 -37 -40 -69 -55 -104 -50 -24 4 -32 2 -32 -10 0 -13 -4 -13 -32 -2
-18 8 -58 17 -88 20 -49 6 -98 31 -85 44 3 3 0 11 -6 19 -13 15 -45 18 -53 4z
m-108 -228 c13 -24 -3 -64 -22 -57 -19 7 -28 45 -14 61 14 18 26 16 36 -4z
m-179 -12 c-3 -26 -15 -39 -29 -31 -13 8 -13 11 -1 19 7 5 11 14 7 20 -5 7 -1
9 8 5 9 -3 16 -9 15 -13z m368 -71 c6 0 13 -9 16 -19 4 -15 -2 -20 -27 -24
-38 -6 -43 -2 -26 18 7 8 8 15 3 15 -5 0 -9 9 -10 21 -2 20 -1 20 16 5 10 -9
22 -16 28 -16z m-735 -35 c6 -31 1 -36 -28 -25 -18 7 -24 6 -24 -4 0 -8 7 -16
15 -20 22 -8 18 -25 -7 -35 -27 -10 -39 -4 -18 9 10 7 11 10 3 10 -19 0 -9 40
16 66 29 30 38 30 43 -1z m-42 -262 c8 -10 14 -28 12 -40 -3 -18 -10 -23 -32
-23 -16 0 -32 -4 -35 -10 -3 -5 -10 -10 -15 -10 -14 0 0 54 17 68 9 6 13 12 9
12 -4 0 -4 5 -1 10 9 15 29 12 45 -7z m-429 -696 c-10 -9 -11 -8 -5 6 3 10 9
15 12 12 3 -3 0 -11 -7 -18z m2052 -536 c-3 -11 0 -10 11 3 9 11 16 15 16 10
0 -6 -5 -15 -12 -22 -9 -9 -6 -13 12 -20 23 -9 23 -9 2 -14 -13 -4 -20 -2 -19
6 1 6 -5 10 -13 8 -8 -2 -12 0 -8 3 4 4 3 15 -2 25 -6 12 -5 17 5 17 7 0 11
-7 8 -16z m-1783 -171 c12 -8 11 -10 -7 -10 -13 0 -23 5 -23 10 0 13 11 13 30
0z m460 -374 c0 -2 -9 -6 -20 -9 -11 -3 -20 -1 -20 4 0 5 9 9 20 9 11 0 20 -2
20 -4z m7 -178 c5 -31 38 -80 73 -107 18 -14 29 -30 26 -38 -7 -17 36 -63 59
-63 8 0 15 -4 15 -10 0 -10 -21 -14 -50 -10 -20 2 -70 50 -70 67 0 7 -4 13 -9
13 -6 0 -17 12 -25 28 -23 42 -50 96 -50 104 -1 3 -4 10 -8 14 -4 4 0 13 10
20 20 14 25 11 29 -18z m178 -19 c11 -17 2 -18 -19 -3 -17 12 -17 14 -4 14 9
0 20 -5 23 -11z"/>
<path d="M2732 824 c-41 -29 -23 -100 28 -108 66 -10 106 58 60 104 -24 24
-57 26 -88 4z"/>
<path d="M2445 550 c-3 -6 1 -7 9 -4 18 7 21 14 7 14 -6 0 -13 -4 -16 -10z"/>
<path d="M2327 433 c-9 -19 7 -83 22 -83 13 0 10 63 -4 76 -7 8 -15 11 -18 7z"/>
<path d="M2276 52 c-5 -8 -60 -26 -76 -24 -3 0 -11 -6 -18 -14 -11 -12 6 -14
118 -14 111 0 129 2 118 14 -7 8 -16 12 -20 9 -5 -2 -8 0 -8 5 0 9 -6 11 -60
15 -19 1 -38 6 -41 11 -4 4 -9 4 -13 -2z"/>
<path d="M30 40 c0 -5 -7 -7 -15 -4 -10 4 -15 0 -15 -14 0 -19 7 -20 85 -21
47 0 85 2 85 4 0 6 -47 27 -70 31 -8 1 -27 5 -42 8 -16 3 -28 1 -28 -4z"/>
<path d="M1965 20 c-11 -4 -24 -5 -29 -2 -5 3 -6 0 -2 -6 9 -15 146 -16 146
-2 0 6 -12 10 -27 11 -16 0 -37 2 -48 4 -11 2 -29 0 -40 -5z"/>
</g>
</svg>
